HIERARCHY
ROOT Hips
{
  OFFSET 179.979 97.3047 303.174
  CHANNELS 6 Xposition Yposition Zposition Zrotation Xrotation Yrotation
  JOINT Spine
  {
    OFFSET 0.000859786 9.92346 -1.22733
    CHANNELS 3 Zrotation Xrotation Yrotation
    JOINT Spine1
    {
      OFFSET 0 11.732 0
      CHANNELS 3 Zrotation Xrotation Yrotation
      JOINT Spine2
      {
        OFFSET 0 13.4588 0
        CHANNELS 3 Zrotation Xrotation Yrotation
        JOINT Neck
        {
          OFFSET 2.54812e-05 15.0278 0.877907
          CHANNELS 3 Zrotation Xrotation Yrotation
          JOINT Head
          {
            OFFSET 0 10.3218 3.14243
            CHANNELS 3 Zrotation Xrotation Yrotation
            End Site
            {
              OFFSET 0 0 0
            }
          }
        }
        JOINT LeftShoulder
        {
          OFFSET 6.10582 9.10629 0.757062
          CHANNELS 3 Zrotation Xrotation Yrotation
          JOINT LeftArm
          {
            OFFSET 0 12.9223 0
            CHANNELS 3 Zrotation Xrotation Yrotation
            JOINT LeftForeArm
            {
              OFFSET 0 27.4047 0
              CHANNELS 3 Zrotation Xrotation Yrotation
              JOINT LeftHand
              {
                OFFSET -1.28204e-05 27.6145 0
                CHANNELS 3 Zrotation Xrotation Yrotation
                End Site
                {
                  OFFSET 0 0 0
                }
              }
            }
          }
        }
        JOINT RightShoulder
        {
          OFFSET -6.1057 9.10638 0.757076
          CHANNELS 3 Zrotation Xrotation Yrotation
          JOINT RightArm
          {
            OFFSET 0 12.9223 0
            CHANNELS 3 Zrotation Xrotation Yrotation
            JOINT RightForeArm
            {
              OFFSET 0 27.4047 0
              CHANNELS 3 Zrotation Xrotation Yrotation
              JOINT RightHand
              {
                OFFSET 1.28428e-05 27.6145 1.44975e-05
                CHANNELS 3 Zrotation Xrotation Yrotation
                End Site
                {
                  OFFSET 0 0 0
                }
              }
            }
          }
        }
      }
    }
  }
  JOINT LeftUpLeg
  {
    OFFSET 9.12387 -6.65719 -0.0554031
    CHANNELS 3 Zrotation Xrotation Yrotation
    JOINT LeftLeg
    {
      OFFSET 0 40.5994 0
      CHANNELS 3 Zrotation Xrotation Yrotation
      JOINT LeftFoot
      {
        OFFSET 0 42.099 0
        CHANNELS 3 Zrotation Xrotation Yrotation
        JOINT LeftToeBase
        {
          OFFSET 0 15.7216 0
          CHANNELS 3 Zrotation Xrotation Yrotation
          End Site
          {
            OFFSET 0 0 0
          }
        }
      }
    }
  }
  JOINT RightUpLeg
  {
    OFFSET -9.12503 -6.6556 -0.0553527
    CHANNELS 3 Zrotation Xrotation Yrotation
    JOINT RightLeg
    {
      OFFSET 0 40.5994 0
      CHANNELS 3 Zrotation Xrotation Yrotation
      JOINT RightFoot
      {
        OFFSET 0 42.099 0
        CHANNELS 3 Zrotation Xrotation Yrotation
        JOINT RightToeBase
        {
          OFFSET 0 15.7216 0
          CHANNELS 3 Zrotation Xrotation Yrotation
          End Site
          {
            OFFSET 0 0 0
          }
        }
      }
    }
  }
}
MOTION
Frames:	15
Frame Time:	0.0333333
-124.502 98.5621 -177.937 2.29757 -7.45407 3.86745 -0.571681 -4.31489 -0.0846841 -1.14903 5.31887 -0.00110866 -1.14622 11.9133 -0.00150613 -9.76782 3.0621 -4.66714 12.9687 -19.5207 -8.10641 -90.0649 -13.6927 90.3319 18.7088 13.9858 -6.93304 19.2173 -17.1842 -0.820921 -12.783 -10.4377 28.2033 93.2617 -19.8905 -89.6668 -15.9421 15.4756 8.0174 -17.1176 -16.1655 0.777526 8.81163 -4.69636 -9.82101 -178.064 -8.12098 2.70293 -2.96709 -8.09044 -6.91182 12.2849 66.2645 -11.9834 -0.965274 26.367 -3.60229 174.931 -10.0289 6.39292 4.17995 -9.80562 10.9092 -22.4189 70.3535 23.0041 0.963546 26.3682 3.55537 
-124.488 98.5621 -177.946 2.28466 -7.4545 3.81754 -0.571487 -4.32544 -0.0892143 -1.14812 5.29782 -0.0109463 -1.14531 11.8923 -0.0114131 -9.83175 3.30477 -4.62755 13.0771 -19.5486 -8.10898 -90.0432 -13.6494 90.3363 18.7352 13.9622 -6.98624 19.2133 -17.1772 -0.82089 -12.7958 -10.4406 28.4723 93.2392 -19.8409 -89.6739 -15.8901 15.4825 8.00725 -17.1537 -16.1147 0.777327 8.73312 -5.0296 -9.92412 -178.065 -8.13169 2.68714 -2.97048 -8.06693 -6.93165 12.3177 66.2502 -12.0131 -0.965274 26.367 -3.60229 174.928 -10.0294 6.3688 4.18525 -9.78197 10.8924 -22.3639 70.3366 22.949 0.963546 26.3682 3.55537 
-124.456 98.5622 -177.967 2.25241 -7.45548 3.70185 -0.571109 -4.3509 -0.0983116 -1.14307 5.24707 -0.0317811 -1.13777 11.8415 -0.0326101 -9.91348 3.98219 -4.5533 13.1884 -19.786 -8.10017 -90.0097 -13.539 90.3421 18.7529 13.891 -7.06809 19.2409 -17.1595 -0.820812 -12.8549 -10.389 28.9729 93.1739 -19.7281 -89.6911 -15.7841 15.4942 7.88553 -17.1709 -16.0022 0.776888 8.64515 -5.86327 -10.0435 -178.077 -8.15565 2.58969 -2.95262 -8.03393 -6.94027 12.3368 66.2346 -12.0305 -0.965274 26.367 -3.60229 174.916 -10.0277 6.30056 4.19663 -9.72526 10.8613 -22.2493 70.2951 22.8342 0.963546 26.3682 3.55537 
-124.425 98.5659 -177.995 2.21336 -7.4567 3.55252 -0.566507 -4.37623 -0.0983758 -1.13371 5.19643 -0.0334993 -1.12824 11.7909 -0.0343385 -9.91734 4.70049 -4.52035 13.2084 -20.0685 -8.10667 -89.9843 -13.423 90.3514 18.7646 13.7948 -7.02588 19.2298 -17.1441 -0.820743 -12.8857 -10.186 29.243 93.1226 -19.6241 -89.7063 -15.7297 15.4758 7.7314 -17.1006 -15.8992 0.77222 8.67303 -6.68634 -9.71905 -178.09 -8.15963 2.48887 -2.93243 -8.0288 -6.9674 12.3833 66.226 -12.0763 -0.965274 26.367 -3.60229 174.906 -10.0014 6.19492 4.20191 -9.68919 10.8345 -22.1434 70.2548 22.7276 0.963546 26.3682 3.55537 
-124.396 98.5698 -178.033 2.16859 -7.45672 3.36552 -0.55949 -4.39994 -0.0910407 -1.11991 5.14889 -0.0210699 -1.1159 11.7434 -0.021694 -9.90456 5.36461 -4.53363 13.2779 -20.2371 -8.1654 -89.9673 -13.3268 90.3603 18.7767 13.694 -6.93966 19.1736 -17.1327 -0.820693 -12.8281 -9.88338 29.4867 93.0998 -19.4874 -89.724 -15.6887 15.4244 7.79251 -17.049 -15.7845 0.764846 8.867 -7.29931 -9.09122 -178.104 -8.15461 2.37163 -2.90764 -8.03268 -7.0071 12.4467 66.221 -12.146 -0.965274 26.367 -3.60229 174.895 -9.94163 6.06664 4.20391 -9.68238 10.8011 -22.0307 70.2203 22.6114 0.963546 26.3682 3.55537 
-124.366 98.5735 -178.075 2.12153 -7.45034 3.16404 -0.550395 -4.42075 -0.0818461 -1.10205 5.10728 -0.00549032 -1.09986 11.7018 -0.00584437 -9.88148 5.99287 -4.57039 13.3584 -20.3714 -8.24586 -89.9618 -13.2679 90.3646 18.7899 13.5936 -6.82046 19.0815 -17.1431 -0.820739 -12.681 -9.54346 29.772 93.0907 -19.3436 -89.7419 -15.6752 15.3598 8.04961 -17.0352 -15.7014 0.758956 9.16926 -7.5073 -8.51733 -178.119 -8.13509 2.25254 -2.87875 -8.05002 -7.05492 12.5202 66.2176 -12.2303 -0.965274 26.367 -3.60229 174.878 -9.86367 5.95581 4.20822 -9.69404 10.7499 -21.896 70.1951 22.4654 0.963546 26.3682 3.55537 
-124.339 98.5765 -178.116 2.07524 -7.44105 2.97285 -0.540237 -4.43535 -0.0761867 -1.08187 5.07807 0.00278306 -1.0807 11.6726 0.00261553 -9.79864 6.41372 -4.56885 13.3751 -20.425 -8.25473 -89.9642 -13.2558 90.3628 18.8 13.4985 -6.70306 18.9788 -17.1597 -0.820812 -12.5002 -9.28619 29.9617 93.0863 -19.237 -89.7552 -15.7175 15.2851 8.29922 -17.0014 -15.7069 0.758967 9.47123 -7.203 -8.30083 -178.132 -8.10906 2.14988 -2.85201 -8.07398 -7.10661 12.5976 66.2147 -12.321 -0.965274 26.367 -3.60229 174.857 -9.7834 5.93855 4.21364 -9.71638 10.6493 -21.6888 70.1872 22.2326 0.963546 26.3682 3.55537 
-124.316 98.5796 -178.155 2.03046 -7.42847 2.8058 -0.529082 -4.43938 -0.0755799 -1.05958 5.07002 0.00174261 -1.05826 11.6645 0.00155522 -9.7111 6.5481 -4.56857 13.4157 -20.3277 -8.25361 -89.9683 -13.2976 90.3595 18.806 13.42 -6.6939 18.9296 -17.1546 -0.82079 -12.4652 -9.17492 29.9799 93.0767 -19.1986 -89.7602 -15.7946 15.2046 8.4059 -16.9861 -15.7311 0.761378 9.54573 -7.02725 -8.32379 -178.143 -8.07287 2.06935 -2.83305 -8.10489 -7.15745 12.672 66.2114 -12.4081 -0.965274 26.367 -3.60229 174.841 -9.7106 5.93556 4.22399 -9.729 10.555 -21.4991 70.1776 22.0129 0.963546 26.3682 3.55537 
-124.295 98.5828 -178.194 1.98798 -7.40817 2.66198 -0.517064 -4.43469 -0.0771192 -1.03527 5.07937 -0.00503155 -1.03313 11.6738 -0.0053519 -9.60131 6.46902 -4.59345 13.528 -20.1654 -8.2623 -89.9703 -13.3556 90.3575 18.771 13.3669 -6.80502 18.9134 -17.1296 -0.820679 -12.4355 -9.20727 29.9441 93.0626 -19.201 -89.7606 -15.8358 15.132 8.40612 -17.0612 -15.7399 0.764476 9.47746 -7.06707 -8.35032 -178.153 -8.03244 2.003 -2.81919 -8.12741 -7.20307 12.7394 66.2065 -12.4848 -0.965274 26.367 -3.60229 174.836 -9.63792 5.84138 4.2379 -9.72418 10.5299 -21.4218 70.1458 21.9183 0.963546 26.3682 3.55537 
-124.275 98.5868 -178.235 1.95021 -7.37222 2.55193 -0.505828 -4.42987 -0.0803316 -1.01272 5.08911 -0.0153243 -1.0094 11.6836 -0.0158003 -9.48612 6.3845 -4.65855 13.7832 -20.1314 -8.30308 -89.958 -13.3377 90.3581 18.6443 13.3336 -6.87858 18.8804 -17.1137 -0.818242 -12.4244 -9.32891 29.8229 93.0393 -19.2258 -89.7586 -15.8676 15.0898 8.30514 -17.127 -15.8017 0.772621 9.41263 -7.06276 -8.31875 -178.164 -7.95683 1.95165 -2.80949 -8.1652 -7.23916 12.7912 66.1985 -12.5412 -0.965274 26.367 -3.60229 174.842 -9.55356 5.77132 4.23551 -9.71597 10.5103 -21.3492 70.1117 21.8377 0.963546 26.3682 3.55537 
-124.254 98.591 -178.276 1.92945 -7.32524 2.48894 -0.498406 -4.42504 -0.0865772 -0.99759 5.09892 -0.0299641 -0.992559 11.6934 -0.0306795 -9.28515 6.33179 -4.80614 14.0911 -20.2579 -8.39032 -89.9452 -13.3039 90.3611 18.5224 13.2944 -6.86264 18.845 -17.112 -0.816767 -12.5046 -9.49174 29.7018 93.018 -19.2466 -89.7569 -15.8752 15.0518 8.24432 -17.1415 -15.8501 0.777876 9.3776 -6.97754 -8.28532 -178.178 -7.87744 1.90807 -2.79469 -8.187 -7.25263 12.8089 66.1838 -12.5567 -0.965274 26.367 -3.60229 174.838 -9.46416 5.72842 4.23377 -9.71367 10.502 -21.2961 70.0801 21.783 0.963546 26.3682 3.55537 
-124.23 98.5955 -178.311 1.91961 -7.26822 2.45497 -0.490048 -4.42165 -0.0966573 -0.980387 5.10577 -0.0525028 -0.972704 11.7003 -0.0535986 -9.17665 6.27017 -4.95495 14.4974 -20.4241 -8.50455 -89.9657 -13.2806 90.3643 18.4267 13.2439 -6.88192 18.7976 -17.0968 -0.81553 -12.6047 -9.62526 29.7336 92.9574 -19.28 -89.7556 -15.9091 15.0319 8.33009 -17.1038 -15.8406 0.776232 9.36399 -6.7832 -8.24891 -178.201 -7.78826 1.862 -2.77836 -8.19818 -7.2483 12.7993 66.1607 -12.5373 -0.965274 26.367 -3.60229 174.824 -9.37317 5.6861 4.2357 -9.71182 10.5104 -21.2729 70.0489 21.763 0.963546 26.3682 3.55537 
-124.205 98.5998 -178.341 1.92027 -7.20881 2.43933 -0.483603 -4.41872 -0.107136 -0.96701 5.11156 -0.0753342 -0.956618 11.706 -0.0768298 -9.04372 6.12265 -5.10486 14.8062 -20.4481 -8.61735 -89.9817 -13.2499 90.3676 18.3367 13.2036 -6.93675 18.7736 -17.0697 -0.81448 -12.7619 -9.71787 29.9522 92.9126 -19.3316 -89.7511 -15.9639 15.0005 8.47475 -17.0397 -15.8261 0.772419 9.35834 -6.4416 -8.08141 -178.23 -7.72008 1.8183 -2.76501 -8.17738 -7.23449 12.7786 66.1302 -12.4994 -0.965274 26.367 -3.60229 174.799 -9.28568 5.6401 4.2451 -9.70989 10.5308 -21.274 70.0207 21.7709 0.963546 26.3682 3.55537 
-124.178 98.6036 -178.365 1.92783 -7.15353 2.44011 -0.4782 -4.41566 -0.119302 -0.955614 5.11796 -0.101198 -0.942177 11.7124 -0.103135 -8.92581 5.89222 -5.26988 14.9469 -20.3289 -8.75351 -89.9818 -13.214 90.3711 18.2443 13.1982 -7.0349 18.7878 -17.0564 -0.81367 -12.9364 -9.81613 30.3079 92.8873 -19.3886 -89.7454 -16.0229 14.9429 8.60463 -16.9802 -15.8083 0.76882 9.33099 -6.15767 -7.93437 -178.265 -7.64653 1.76139 -2.74778 -8.17119 -7.20398 12.7356 66.1061 -12.4358 -0.965274 26.367 -3.60229 174.769 -9.20915 5.59242 4.25582 -9.70886 10.5612 -21.2923 69.9939 21.8008 0.963546 26.3682 3.55537 
-124.151 98.6031 -178.384 1.93955 -7.10761 2.44865 -0.473201 -4.41171 -0.133535 -0.94495 5.126 -0.131112 -0.928001 11.7205 -0.133573 -8.88388 5.66439 -5.3733 15.0198 -20.199 -8.84736 -89.9537 -13.2206 90.3688 18.2093 13.2351 -7.1316 18.7859 -17.0621 -0.813065 -13.0267 -9.98546 30.8507 92.8789 -19.4315 -89.7405 -16.0635 14.8548 8.64931 -16.9534 -15.7823 0.767037 9.26828 -6.02724 -7.78755 -178.305 -7.57963 1.68486 -2.72369 -8.18198 -7.15736 12.6727 66.0968 -12.3533 -0.965274 26.367 -3.60229 174.738 -9.14528 5.52254 4.26582 -9.70947 10.6086 -21.3408 69.9677 21.867 0.963546 26.3682 3.55537 
